<?xml version="1.0" standalone="no"?><!DOCTYPE svg PUBLIC "-//W3C//DTD SVG 1.1//EN" "http://www.w3.org/Graphics/SVG/1.1/DTD/svg11.dtd"><svg t="1768874965762" class="icon" viewBox="0 0 1024 1024" version="1.1" xmlns="http://www.w3.org/2000/svg" p-id="9150" xmlns:xlink="http://www.w3.org/1999/xlink" width="100" height="100"><path d="M568.32 183.978667q4.266667 0 8.362667-0.796445t7.964444-2.446222q3.925333-1.592889 7.395556-3.925333 3.527111-2.332444 6.485333-5.290667 2.958222-3.015111 5.290667-6.485333 2.332444-3.470222 3.982222-7.395556 1.592889-3.868444 2.389333-7.964444 0.853333-4.152889 0.853334-8.362667 0-4.152889-0.853334-8.305778-0.796444-4.096-2.389333-7.964444-1.649778-3.925333-3.982222-7.395556-2.275556-3.527111-5.290667-6.485333-2.958222-2.958222-6.485333-5.290667-3.470222-2.332444-7.395556-3.982222-3.868444-1.592889-7.964444-2.389333-4.096-0.853333-8.305778-0.853334H301.169778q-111.786667 0-190.862222 79.075556T31.288889 368.64v291.157333q0 111.843556 79.075555 190.919111t190.862223 79.075556h598.414222q28.672 0 48.981333-20.309333t20.309334-49.038223V489.244444q0-4.209778-0.853334-8.305777-0.796444-4.152889-2.389333-8.021334-1.649778-3.868444-3.982222-7.395555-2.275556-3.470222-5.290667-6.428445-2.958222-3.015111-6.485333-5.347555-3.413333-2.275556-7.395556-3.982222-3.811556-1.536-7.964444-2.389334-4.096-0.796444-8.305778-0.796444t-8.362667 0.796444q-4.096 0.853333-7.964444 2.446222-3.868444 1.592889-7.395556 3.982223-3.470222 2.275556-6.485333 5.290666-2.958222 2.958222-5.290667 6.428445-2.275556 3.527111-3.982222 7.395555-1.536 3.868444-2.389333 7.964445-0.796444 4.152889-0.796445 8.362666v355.157334H301.226667q-76.458667 0-130.56-54.044445-54.044444-54.044444-54.044445-130.56V368.64q0-76.515556 54.044445-130.56 54.101333-54.044444 130.56-54.044444h267.150222z" p-id="9151"></path><path d="M300.999111 398.222222m51.2 0l0 0q51.2 0 51.2 51.2l0 125.155556q0 51.2-51.2 51.2l0 0q-51.2 0-51.2-51.2l0-125.155556q0-51.2 51.2-51.2Z" p-id="9152"></path><path d="M585.443556 398.222222m51.2 0l0 0q51.2 0 51.2 51.2l0 125.155556q0 51.2-51.2 51.2l0 0q-51.2 0-51.2-51.2l0-125.155556q0-51.2 51.2-51.2Z" p-id="9153"></path><path d="M682.723556 200.704c-16.156444 3.982222-16.156444 26.965333 0 30.947556l66.503111 16.384a91.022222 91.022222 0 0 1 66.56 66.56l16.384 66.503111c3.982222 16.156444 26.965333 16.156444 30.947555 0l16.384-66.503111a91.022222 91.022222 0 0 1 66.56-66.56l66.503111-16.384c16.156444-3.982222 16.156444-26.965333 0-30.947556l-66.503111-16.440889a91.022222 91.022222 0 0 1-66.56-66.56L863.118222 51.313778c-3.982222-16.156444-26.965333-16.156444-30.947555 0L815.786667 117.76a91.022222 91.022222 0 0 1-66.56 66.56L682.666667 200.647111z" p-id="9154"></path></svg>