<?xml version="1.0" standalone="no"?><!DOCTYPE svg PUBLIC "-//W3C//DTD SVG 1.1//EN" "http://www.w3.org/Graphics/SVG/1.1/DTD/svg11.dtd"><svg t="1768875270205" class="icon" viewBox="0 0 1024 1024" version="1.1" xmlns="http://www.w3.org/2000/svg" p-id="12326" xmlns:xlink="http://www.w3.org/1999/xlink" width="100" height="100"><path d="M950.857143 515.657143a163.693714 163.693714 0 0 0-62.390857-128 163.876571 163.876571 0 0 0-102.180572-292.571429h-548.571428a163.876571 163.876571 0 0 0-102.180572 292.571429 162.486857 162.486857 0 0 0 0 256 163.876571 163.876571 0 0 0 102.180572 292.571428h548.571428a163.876571 163.876571 0 0 0 102.180572-292.571428A163.693714 163.693714 0 0 0 950.857143 515.657143z m-804.571429-256a91.428571 91.428571 0 0 1 91.428572-91.428572H256v36.571429a36.571429 36.571429 0 0 0 73.142857 0v-36.571429h73.142857v36.571429a36.571429 36.571429 0 0 0 73.142857 0v-36.571429h310.857143a91.428571 91.428571 0 1 1 0 182.857143h-548.571428A91.428571 91.428571 0 0 1 146.285714 259.657143z m731.428572 512a91.428571 91.428571 0 0 1-91.428572 91.428571h-548.571428a91.428571 91.428571 0 0 1 0-182.857143H256v36.571429a36.571429 36.571429 0 0 0 73.142857 0v-36.571429h73.142857v36.571429a36.571429 36.571429 0 0 0 73.142857 0v-36.571429h310.857143a91.428571 91.428571 0 0 1 91.428572 91.428572zM237.714286 607.085714a91.428571 91.428571 0 0 1 0-182.857143H256v36.571429a36.571429 36.571429 0 0 0 73.142857 0v-36.571429h73.142857v36.571429a36.571429 36.571429 0 0 0 73.142857 0v-36.571429h310.857143a91.428571 91.428571 0 1 1 0 182.857143h-548.571428z" p-id="12327"></path></svg>