<?xml version="1.0" standalone="no"?><!DOCTYPE svg PUBLIC "-//W3C//DTD SVG 1.1//EN" "http://www.w3.org/Graphics/SVG/1.1/DTD/svg11.dtd"><svg t="1768794596396" class="icon" viewBox="0 0 1024 1024" version="1.1" xmlns="http://www.w3.org/2000/svg" p-id="4729" xmlns:xlink="http://www.w3.org/1999/xlink" width="100" height="100"><path d="M948.928 82.56c79.424 79.424 40.832 254.72-82.24 438.528 123.072 183.808 161.664 359.04 82.24 438.528-79.488 79.424-254.784 40.832-438.528-82.24-183.808 123.072-359.04 161.664-438.528 82.24-79.424-79.488-40.832-254.72 82.176-438.464C31.04 337.28-7.552 161.92 71.872 82.56 151.296 3.136 326.592 41.728 510.4 164.8 694.208 41.728 869.44 3.136 948.928 82.56z m-125.44 498.688l-10.56 13.76a1363.584 1363.584 0 0 1-107.648 120.96 1354.24 1354.24 0 0 1-134.656 118.272c148.992 94.592 281.408 124.8 329.6 76.608 48.128-48.128 17.92-180.48-76.736-329.6z m-626.24 0l-8.704 14.08c-87.744 143.232-114.56 268.928-67.968 315.52 48.128 48.192 180.608 17.984 329.6-76.672a1346.944 1346.944 0 0 1-134.656-118.208 1354.24 1354.24 0 0 1-118.272-134.656z m313.152-332.096l-13.376 9.92a1274.432 1274.432 0 0 0-132.8 115.84c-48 48-90.112 97.472-125.824 146.176 35.712 48.64 77.824 98.176 125.824 146.176 48 48 97.472 90.112 146.176 125.76a1270.208 1270.208 0 0 0 146.176-125.76 1266.56 1266.56 0 0 0 125.76-146.176 1259.904 1259.904 0 0 0-125.76-146.176 1266.56 1266.56 0 0 0-146.176-125.76z m-9.088 193.92a68.928 68.928 0 1 1 0 137.856 68.928 68.928 0 0 1 0-137.856zM120.576 131.264c-48.128 48.128-17.92 180.608 76.736 329.6 34.624-45.44 74.24-90.688 118.208-134.656a1354.24 1354.24 0 0 1 134.656-118.272C301.184 113.28 168.704 83.2 120.576 131.264z m464 67.968l-13.952 8.704a1354.24 1354.24 0 0 1 134.656 118.272A1354.24 1354.24 0 0 1 823.552 460.8c94.592-148.992 124.8-281.472 76.608-329.6-46.592-46.592-172.288-19.84-315.52 67.968z" p-id="4730"></path></svg>